<svg width="800" height="600" xmlns="http://www.w3.org/2000/svg">

 <g>
  <title>Layer 1</title>
  <path d="m-1.08807,594.92047c5,-5 10.45235,-9.45428 19,-17c5.30103,-4.67963 8,-8 10,-9c2,-1 3.29289,-2.29291 4,-3c0.70711,-0.70709 1,-2 2,-3c1,-1 1.07612,-1.61731 2,-2c1.30656,-0.5412 1.29289,-1.29291 2,-2c0.70711,-0.70709 0,-2 1,-3c1,-1 2,-2 4,-5c2,-3 4.91761,-5.3869 6,-8.00003c0.76536,-1.84775 1,-3 2,-5c1,-2 1,-3 2,-3c0,0 0,-1 0,-1c1,-1 1,-1 1,-1c0,-1 0,-1 0,-1c0,-1 0.45881,-0.69345 1,-2c0.38268,-0.92389 0.61732,-2.07611 1,-3c0.54119,-1.30655 2,-3 3,-5c1,-2 2.1731,-2.85272 3,-4c1.30745,-1.814 1.23463,-4.15225 2,-6c0.54119,-1.30655 2,-2 2,-3c0,0 0,0 0,0c0,-1 0.29289,-0.29291 1,-1c0.70711,-0.70709 0,-1 1,-1c0,0 0,-1 0,-1c0,0 1,0 1,0c1,0 1,1 2,1c0,0 0.29289,1.29291 1,2c0.70711,0.70709 1.86829,1.28857 6,3c2.92156,1.21014 8.186,2.69254 10,4c1.14727,0.8269 1.93414,2.14429 4,3c2.92156,1.21014 5,2 7,3c0,0 1,1 2,1c0,0 0,1 1,1c1,0 3,0 3,0c2,0 5,0 7,-1c2,-1 3.797,-2.2565 5,-3c2.68999,-1.66251 5.1731,-2.85272 6,-4c1.30745,-1.814 3,-3 4,-4c2,-2 4.99999,-6 7.99999,-9c3,-3 4,-5 5,-7c1,-2 2.1731,-4.85272 3,-6c1.30745,-1.814 1.61731,-3.07611 2,-4c0.5412,-1.30655 1,-1 2,-2c1,-1 1.61731,-2.07611 2,-3c0.5412,-1.30655 2,-2 2,-2c1,-1 1.90633,-1.10339 3,-2c2.78833,-2.28589 3.84383,-3.8035 7,-4c15.2675,-0.95053 27.89149,6.3476 37,9c3.95868,1.15277 5.82375,1.48627 8,2c1.9465,0.4595 3,0 4,0c0,0 1,0 2,0c3,0 5.82375,-1.48627 8,-2c2.91975,-0.68927 8.07179,-1.69125 13,-3c6.11269,-1.62332 7.69344,-3.4588 9,-4c0.92387,-0.38269 3,-1 5,-2c4,-2 6.70546,-4.34619 9,-6c1.814,-1.30746 4,-3 8,-7c8,-8 12,-12 18,-18c3,-3 6.34619,-4.70547 8,-7c2.6149,-3.62799 2.74182,-6.32718 9,-11c8.66714,-6.47153 17.39471,-12.94421 31,-21c5.77225,-3.41779 9,-4 10,-5c2,-2 3.3764,-1.08032 5,-5c0.38269,-0.92389 1,-2 3,-4c2,-2 5,-4 9,-6c2,-1 3,-2 4,-2c1,0 2,-1 3,-1c2,0 2.69345,0.4588 4,1c0.92389,0.38269 2,1 5,4c9,9 21.73907,24.23886 30,33c4.85098,5.14471 7.21167,6.71411 10,9c1.09366,0.89661 2.85272,2.1731 4,3c1.814,1.30746 4.00974,2.19708 6,2c5.07422,-0.50244 10.9791,-3.05466 24,-8c7.98734,-3.0336 24.56842,-10.22983 37,-20c9.46759,-7.44073 15.54901,-15.60641 19,-21c2.41028,-3.76703 2.77023,-6.02676 3,-7c0.51373,-2.17624 3.37134,-4.74673 6,-9c2.35114,-3.80423 5.07861,-8.93814 9,-14c3.06213,-3.95267 4.71411,-6.21167 7,-9c1.79321,-2.18735 5.25726,-3.55219 9,-6c6.53644,-4.27493 17.0351,-13.95865 30,-25c7.01904,-5.97769 10.25653,-7.797 11,-9c1.66254,-2.69 2.90607,-8.0386 5,-13c3.82959,-9.07382 6.38507,-15.37199 9,-18.99998c3.30762,-4.58908 12.74255,-14.24245 25,-27c7.8385,-8.15831 12.42334,-11.42824 18,-16c3.28101,-2.68979 7.18604,-4.69255 9,-6c2.29456,-1.65381 4,-4 5,-5c2,-2 3.21167,-2.71413 6,-5c2.18732,-1.7932 6.8739,-5.15533 13,-10c3.92181,-3.10149 8.96539,-5.04671 13,-8c6.94141,-5.08104 10.73651,-9.27379 18,-16c6.76459,-6.26422 10.71411,-11.21167 13,-14c1.79321,-2.18735 2.69257,-3.186 4,-5c0.8269,-1.14728 2,-3.00001 3,-5.00001c1,-2 1.43463,-6.15099 4,-8c0.81122,-0.58471 2,0 2,0c0,0 1,-1 1,-1c1,-2 1.724,-4.22273 5,-8c0.92657,-1.06837 2,-3 3,-4c2,-2 5.21942,-6.8566 13,-19c8.23492,-12.85247 11,-19 12,-21c1,-2 1.78986,-3.07844 3,-6c1.71143,-4.13171 3.56952,-7.133 5,-11c1.55157,-4.19435 3.77026,-7.02675 4,-8c0.51373,-2.17625 2,-4 4,-6c1,-1 2.76111,-3.4159 6,-5c2.8407,-1.38935 6,-3 6,-3c1,-1 3,-1 4,-2c1,-1 2.69342,-2.4588 4,-3c0.92389,-0.38268 2.02673,-0.77025 3,-1c2.17627,-0.51374 3,-2 4,-2c0,0 1,0 1,0c0,-1 1,-1 2,-2l0,0l1,0" id="svg_4" stroke="#000" fill="none"/>
 </g>
</svg>