<svg id="SvgjsSvg1001" width="288" height="288" xmlns="http://www.w3.org/2000/svg" version="1.1">
	<defs id="SvgjsDefs1002"></defs>
	<g id="SvgjsG1008">
		<svg xmlns="http://www.w3.org/2000/svg" enable-background="new 0 0 490 490" viewBox="0 0 490 490" width="288" height="288">
			<path d="M433.612,344.918l-29.506-50.007L305,127.265V100h-0.007c0-1.672-0.412-3.345-1.251-4.856l-50-90
				C251.978,1.969,248.632,0,245,0s-6.978,1.969-8.742,5.144l-50,90c-0.839,1.511-1.251,3.185-1.251,4.856H185v27.265L85.89,294.918
				l-29.502,50c-1.824,3.091-1.852,6.923-0.072,10.041C58.096,358.076,61.411,360,65,360h130h5v20c0,5.523,4.477,10,10,10h70
				c5.523,0,10-4.477,10-10v-20h5h130c3.589,0,6.904-1.924,8.684-5.041C435.464,351.842,435.436,348.01,433.612,344.918z M185,340
				H82.511l17.701-30H170v-20h-57.97L185,166.566V340z M245,30.591L278.005,90h-66.01L245,30.591z M270,370h-50v-10h50V370z
				 M285,340h-80V230h80V340z M285,130v80h-80v-80v-20h80V130z M305,340V166.566L377.97,290H320v20h69.788l17.701,30H305z" fill="#ff8000" class="color000 svgShape"></path>
			<path d="M245 195c16.542 0 30-13.458 30-30s-13.458-30-30-30-30 13.458-30 30S228.458 195 245 195zM245 155c5.514 0 10 4.486 10 10 0 5.514-4.486 10-10 10-5.514 0-10-4.486-10-10C235 159.486 239.486 155 245 155zM245.009 469.65C236.73 467.011 205 453.395 205 400h-20c0 21.99 4.912 52.624 28.311 73.683 14.131 12.718 28.173 15.811 29.729 16.123.647.129 1.304.194 1.961.194.657 0 1.314-.065 1.961-.194 1.555-.311 15.598-3.405 29.729-16.123C300.088 452.624 305 421.99 305 400h-20C285 453.479 253.393 467.005 245.009 469.65z" fill="#ff8000" class="color000 svgShape"></path>
			<rect width="20" height="40" x="235" y="400" fill="#ff8000" class="color000 svgShape"></rect>
		</svg>
	</g>
</svg>